<svg width="142" height="34" viewBox="0 0 142 34" fill="none" xmlns="http://www.w3.org/2000/svg">
<path fill-rule="evenodd" clip-rule="evenodd" d="M78.4001 8.1L72.9001 16.8C72.7001 16.7 72.6001 16.7 72.5001 16.7C71.5001 14 70.5001 10.6 69.5001 8L62.5001 8.1L68.1001 23.1L60.8001 33.7C60.7001 33.8 60.7001 33.8 67.6001 33.9L85.3001 8.1H78.4001Z" fill="#E60012"/>
<path fill-rule="evenodd" clip-rule="evenodd" d="M140.5 26.1C138.9 26 137.3 26.1 135.7 26.1L130.3 18L129.9 17.9L128.2 26.2H123L127.8 2.7L125.1 2.6L125.3 1.5L133.6 0.699997L130.6 15L131.3 15.1L135.6 11.1C138.5 8.2 137.7 8.5 141.8 8.4L141.4 9.89999C138.8 11 135 13.1 133.5 15.5C137.3 20.9 137.3 20.9 140.4 25.1C140.5 25.6 140.7 25.6 140.5 26.1Z" fill="#E60012"/>
<path fill-rule="evenodd" clip-rule="evenodd" d="M33.4002 10.9L34.0002 8.20001C33.7002 8.20001 33.0002 8.30001 32.8002 8.30001C31.2002 8.30001 29.7002 8.30001 28.1002 8.30001L24.7002 25.8C24.7002 26 31.1002 26 31.1002 25.8C31.8002 21.4 31.8002 10.6 39.3002 14.4C39.6002 12.3 39.9002 10.2 40.2002 8.10001C37.8002 8.30001 34.6002 8.40001 33.4002 10.9Z" fill="#E60012"/>
<path fill-rule="evenodd" clip-rule="evenodd" d="M54.8 8.10001L54.5 9.80001C54.1 9.50001 53.8 9.20001 53.5 8.90001C38.9 3.30001 34.3 29.3 49.7 25.9C50.5 25.5 51.3 25.1 52.1 24.7C52 25.1 51.9 25.4 51.9 25.8C52 25.8 52 25.8 52.1 25.8C52.1 26 58.6 26 58.6 25.8L61.3 8.20001H54.8V8.10001ZM49.8 21.2C47.6 21.2 45.7 19.4 45.7 17.3C45.7 15.1 47.5 13.4 49.8 13.4C52 13.4 53.9 15.2 53.9 17.3C53.9 19.4 52 21.2 49.8 21.2Z" fill="#E60012"/>
<path fill-rule="evenodd" clip-rule="evenodd" d="M9.90001 0.3L3.8 0L0 25.8C0 26 10.5 26 10.5 25.8C16.8 24.4 21.3 21.2 23.1 15.7C26.4 5.9 19.2 0.6 9.90001 0.3ZM7.70001 19.8L9.70001 6.3C21.7 6.9 18.1 20.9 7.70001 19.8Z" fill="#E60012"/>
<path fill-rule="evenodd" clip-rule="evenodd" d="M111.4 10.7C117.9 4.7 125 10.8 119.3 15.4C116.7 17.5 114.8 17.1 111.7 17.3C110.6 24.2 114.3 24.5 119.5 21.5C119.9 22.1 119.9 22.1 120 22.5C108.2 31.5 101.5 20 111.4 10.7ZM112.2 16C114.1 15.8 115.3 16 116.6 14.5C118.7 12.1 118.5 8 115.4 10.4C114.1 11.4 113.5 12.4 112.9 13.9C112.6 14.5 112.3 15.2 112.2 16Z" fill="#E60012"/>
<path fill-rule="evenodd" clip-rule="evenodd" d="M91.8998 3.80001C90.0998 4.90001 89.7998 5.60001 88.9998 7.40001H87.7998L88.7998 2.00001L110.9 1.90001L110.1 7.50001C109.6 7.40001 109.1 7.40001 108.5 7.40001C108.3 5.50001 108.2 4.90001 106.8 3.80001C105.1 3.80001 103.5 3.80001 101.9 3.80001C101.6 4.50001 99.1998 17.6 98.3998 21.7C98.0998 23 97.5998 24.4 99.5998 24.4H100.9L100.8 26H89.0998L89.2998 24.5L90.5998 24.4C92.5998 24.3 92.6998 22.9 93.0998 21.3C94.2998 15.4 95.4998 9.60001 96.7998 3.70001C95.0998 3.80001 93.4998 3.80001 91.8998 3.80001Z" fill="#E60012"/>
</svg>
