<svg width="235.57" height="74.54" xmlns="http://www.w3.org/2000/svg">
 <defs>
  <style>.cls-1{fill:#464645;}.cls-2{fill:#9ccb48;}.cls-3{fill:#b09a9a;}.cls-4{fill:#bc68a9;}</style>
 </defs>
 <title>logos</title>
 <g>
  <title>background</title>
  <rect fill="none" id="canvas_background" height="76.54" width="237.57" y="-1" x="-1"/>
 </g>
 <g>
  <title>Layer 1</title>
  <path id="svg_1" d="m88.650002,0.760003l-12.89,0l0,12.11a20.93,20.93 0 0 0 -19.66,-12.87c-10.14,0 -19.21,6.78 -20.92,17.6l-16.73,0l0,7.16l15.38,0c-1.41,5.35 -5.84,10 -12.52,10c-7.87,0 -13.17,-6.45 -13.17,-13.82l0,-0.06c0,-7.1 5,-13.77 13.12,-13.77a12.45,12.45 0 0 1 10.92,6.2a24.27,24.27 0 0 1 4,-7.44a21.25,21.25 0 0 0 -15,-5.92c-11.25,0 -21.2,8.36 -21.2,21.31l0,0.06a20.78,20.78 0 0 0 21.15,20.6a21.08,21.08 0 0 0 17.52,-8.79a21.53,21.53 0 0 0 37.1,-4l0,12.1l13.44,0c14.7,0 20.72,-8.86 20.72,-20.28a20.53,20.53 0 0 0 -4.16,-13.17c-4.8,-6.52 -12.1,-7.02 -17.1,-7.02zm-32.39,34.05c-7.87,0 -13.17,-6.45 -13.17,-13.82l0,-0.06c0,-7.1 5,-13.77 13.11,-13.77c8.26,0 13.06,7.1 13.06,13.88s-4.85,13.77 -13.05,13.77l0.05,0zm33.43,-0.76l-5.74,0l0,-26.13l5.8,0c4.91,0 7.65,1.86 9.34,4a15.19,15.19 0 0 1 2.73,9.07c-0.05,7.32 -3.43,13.06 -12.17,13.06l0.04,0zm22.92,-33.29l0,40.45l8.15,0l0,-16.42l17.42,0l0,-7.16l-17.42,0l0,-9.67l17.42,0l0,-7.16l-25.57,-0.04z" class="cls-1"/>
  <path id="svg_2" d="m168.120002,21.860003a14.26,14.26 0 0 0 -2.95,-18.53c-2.19,-1.58 -5.8,-2.57 -12.08,-2.57l-12.24,0l0,40.45l8.14,0l0,-33.29l4.75,0a10.74,10.74 0 0 1 5.74,1.26a6.94,6.94 0 0 1 3,5.85a7.55,7.55 0 0 1 -2.57,5.9c-1.69,1.31 -4.59,1.48 -7.27,1.48l-1.58,0l10.4,18.8l8.53,0l-8.55,-15a10.56,10.56 0 0 0 6.68,-4.35z" class="cls-1"/>
  <rect id="svg_3" height="7.16" width="26.97" y="33.99" x="173.01" class="cls-1"/>
  <rect id="svg_4" height="7.16" width="26.97" y="17.6" x="173.01" class="cls-1"/>
  <rect id="svg_5" height="7.16" width="26.97" y="0.8" x="173.01" class="cls-1"/>
  <polygon id="svg_6" points="226.83 0.71 219.13 19.07 211.47 0.71 202.68 0.71 215.08 26.67 215.08 41.15 223.22 41.15 223.22 26.67 235.57 0.71 226.83 0.71" class="cls-1"/>
  <path id="svg_7" d="m83.810002,71.300003l0,-14l2.44,0l0,11.92l6.49,0l0,2.1l-8.93,-0.02z" class="cls-2"/>
  <path id="svg_8" d="m95.790002,71.300003l0,-14l2.45,0l0,14l-2.45,0z" class="cls-2"/>
  <path id="svg_9" d="m106.380002,71.300003l-5.33,-14l2.74,0l1.64,4.65q1.42,4.06 2.22,6.16q0.84,-2.3 3.91,-10.81l2.57,0l-5.33,14l-2.42,0z" class="cls-2"/>
  <path id="svg_10" d="m116.820002,71.300003l0,-14l2.44,0l0,14l-2.44,0z" class="cls-2"/>
  <path id="svg_11" d="m123.730002,71.300003l0,-14l2.59,0l7.12,10.32l0,-10.34l2.33,0l0,14l-2.6,0q-6.47,-9.33 -7.18,-10.34l0,10.34l-2.26,0.02z" class="cls-2"/>
  <path id="svg_12" d="m146.770002,71.480003a7.16,7.16 0 0 1 -5.32,-1.89a7,7 0 0 1 -1.86,-5.11a8.82,8.82 0 0 1 0.3,-2.31a7.53,7.53 0 0 1 0.93,-2.06a6.88,6.88 0 0 1 1.5,-1.64a6.52,6.52 0 0 1 2.08,-1.09a8.51,8.51 0 0 1 2.62,-0.4a11.09,11.09 0 0 1 1.81,0.14a6.41,6.41 0 0 1 1.39,0.4c0.38,0.18 0.67,0.32 0.86,0.43a7.11,7.11 0 0 1 0.61,0.43l-1,1.71a6.17,6.17 0 0 0 -3.68,-1a5,5 0 0 0 -2.17,0.45a4.1,4.1 0 0 0 -1.54,1.22a5.51,5.51 0 0 0 -0.88,1.68a6.25,6.25 0 0 0 -0.3,1.94a6.44,6.44 0 0 0 0.3,2a4.43,4.43 0 0 0 0.88,1.58a3.71,3.71 0 0 0 1.48,1a5.49,5.49 0 0 0 2.09,0.37a8.63,8.63 0 0 0 2.4,-0.36l0,-3.31l-3.28,0l0,-2.09l5.76,0l0,6.91a12,12 0 0 1 -4.98,1z" class="cls-2"/>
 </g>
</svg>