<svg xmlns="http://www.w3.org/2000/svg" width="145.24" height="33" viewBox="0 0 145.24 33"><defs><style>.a{fill:#fff;}</style></defs><g transform="translate(-1)"><g transform="translate(5.102 11.871)"><path class="a" d="M137.468,368.4l-1.224,2.968h8.994l-1.225-2.968,9.135,4.627-9.135,4.624,1.225-2.968h-8.994l1.215,2.968-9.158-4.624Z" transform="translate(-128.3 -368.4)"/></g><path class="a" d="M32.07,33H2.933A1.939,1.939,0,0,1,1,31.067V1.933A1.939,1.939,0,0,1,2.933,0H32.07A1.939,1.939,0,0,1,34,1.933V31.067A1.939,1.939,0,0,1,32.07,33ZM17.376,2.9A13.67,13.67,0,0,0,3.9,16.5,13.487,13.487,0,0,0,17.5,30.1,13.782,13.782,0,0,0,31.1,16.5,13.391,13.391,0,0,0,17.376,2.9Z"/><g transform="translate(40.767 9.445)"><path class="a" d="M1239.166,307.143v-11.4H1235.1V293.1h11.452v2.642h-4.064v11.4Z" transform="translate(-1235.1 -293.1)"/><path class="a" d="M1536.082,421.7a4.923,4.923,0,0,1-3.5-1.247,5.375,5.375,0,0,1-1.282-3.854,5.305,5.305,0,0,1,2.065-4.672,5.012,5.012,0,0,1,2.791-.828,4.281,4.281,0,0,1,4.024,2.41,7.338,7.338,0,0,1,.587,3.59l-.01.177h-6.4c.026.986.274,2.181,1.759,2.181a1.376,1.376,0,0,0,1.482-1.183l.035-.142h2.9l-.016.2a3.4,3.4,0,0,1-.957,2.194A4.824,4.824,0,0,1,1536.082,421.7Zm1.453-6.557c-.035-.844-.338-1.766-1.473-1.766-1.228,0-1.527,1.112-1.595,1.766Z" transform="translate(-1521.755 -407.298)"/><path class="a" d="M1868,422.534a3.318,3.318,0,0,1-2.51-.809,3.161,3.161,0,0,1-.889-2.233,3.351,3.351,0,0,1,2.13-3.139,9.694,9.694,0,0,1,3.673-.548,3.04,3.04,0,0,0-.122-1.022,1.113,1.113,0,0,0-1.07-.667,1.088,1.088,0,0,0-.905.448,1.271,1.271,0,0,0-.174.744v.187h-3.123l.006-.193a2.864,2.864,0,0,1,1.157-2.394,5.064,5.064,0,0,1,3-.809,4.744,4.744,0,0,1,3.545,1.292,3.937,3.937,0,0,1,.706,2.465l.019,3.844a11.43,11.43,0,0,0,.223,2.381l.048.226h-2.922l-.026-.158a7.621,7.621,0,0,1-.087-.806A3.31,3.31,0,0,1,1868,422.534Zm2.033-4.75c-1.131,0-2.339.364-2.339,1.389a1.127,1.127,0,0,0,1.176,1.176,1.4,1.4,0,0,0,1.05-.483,3.125,3.125,0,0,0,.483-2.069C1870.278,417.787,1870.152,417.784,1870.033,417.784Z" transform="translate(-1844.315 -408.265)"/><path class="a" d="M2210.4,424.631v-5.8c0-1.183-.242-1.969-1.421-1.969-1.421,0-1.534,1.215-1.534,2.8v4.969h-3.19v-5.855c0-.925-.106-1.914-1.382-1.914-1.573,0-1.573,1.331-1.573,1.969v5.8h-3.19v-7.94c0-.532-.029-1.1-.094-1.779l-.019-.2h3.08l.071.928a3.543,3.543,0,0,1,2.8-1.138,3.242,3.242,0,0,1,3.022,1.582,3.736,3.736,0,0,1,6.123.064,5.313,5.313,0,0,1,.5,2.745v5.736h-3.19Z" transform="translate(-2166.972 -410.588)"/><path class="a" d="M2715.83,307.724,2710.7,293.7h1.743l4.273,12.1,4.218-12.1h1.624l-5.069,14.024Z" transform="translate(-2663.151 -293.681)"/><path class="a" d="M3112.9,307.627v-9.864h1.507v9.864Zm-.1-12.235V293.6h1.695v1.792Z" transform="translate(-3052.294 -293.584)"/><path class="a" d="M3227.546,424.334c-3,0-4.347-2.62-4.347-5.217,0-2.513,1.382-5.217,4.421-5.217,2.913,0,4.518,1.946,4.518,5.481v.187h-7.332c.059,1.144.51,3.354,3.1,3.354a2.631,2.631,0,0,0,2.558-2.123l.033-.145h1.582l-.061.232A4.159,4.159,0,0,1,3227.546,424.334Zm2.975-6.177c-.2-1.811-1.238-2.842-2.877-2.842a2.92,2.92,0,0,0-2.781,2.842Z" transform="translate(-3159.136 -410.007)"/><path class="a" d="M3525.988,432.663l-2.8-7.875-2.855,7.875h-1.415L3515.3,422.8h1.646l2.726,7.682,2.762-7.682h1.6l2.685,7.6,2.63-7.6H3531l-3.674,9.864Z" transform="translate(-3441.824 -418.621)"/><path class="a" d="M4019.147,424.334c-3,0-4.348-2.62-4.348-5.217,0-2.513,1.383-5.217,4.421-5.217,2.913,0,4.519,1.946,4.519,5.481v.187h-7.331c.058,1.144.509,3.354,3.1,3.354a2.631,2.631,0,0,0,2.558-2.123l.033-.145h1.582l-.062.232A4.158,4.158,0,0,1,4019.147,424.334Zm2.974-6.177c-.2-1.811-1.237-2.842-2.878-2.842a2.92,2.92,0,0,0-2.78,2.842Z" transform="translate(-3925.229 -410.007)"/><path class="a" d="M4355.507,423.954v-7.54c.013-.554-.026-1.131-.062-1.637-.013-.168-.022-.332-.032-.487l-.013-.2h1.55l.039.918a2.547,2.547,0,0,1,2.007-1.2c.113-.006.226-.01.341-.01.271,0,.545.013.811.026l.177.01,0,.177v1.3l-.2-.016c-.095-.006-.19-.023-.288-.035a3.024,3.024,0,0,0-.4-.039c-1.5,0-2.385,1.038-2.423,2.842v5.894h-1.508Z" transform="translate(-4254.854 -409.911)"/></g></g></svg>