<?xml version="1.0" standalone="no"?>
<!DOCTYPE svg PUBLIC "-//W3C//DTD SVG 20010904//EN"
 "http://www.w3.org/TR/2001/REC-SVG-20010904/DTD/svg10.dtd">
<svg version="1.0" xmlns="http://www.w3.org/2000/svg"
 width="588.000000pt" height="588.000000pt" viewBox="0 0 588.000000 588.000000"
 preserveAspectRatio="xMidYMid meet">

<g transform="translate(0.000000,588.000000) scale(0.100000,-0.100000)"
fill="#000000" stroke="none">
<path d="M2813 5673 c-29 -2 -53 -8 -53 -14 0 -5 4 -9 9 -9 5 0 12 -46 16
-102 4 -57 8 -120 10 -141 2 -22 0 -50 -6 -63 -11 -31 -64 -54 -124 -54 -87 0
-104 40 -108 257 l-2 103 -26 0 c-50 0 -90 -12 -80 -24 5 -6 15 -76 21 -156 7
-80 18 -159 25 -177 22 -51 65 -68 175 -68 107 1 158 19 194 68 19 26 21 39
16 130 -2 56 -5 137 -5 180 0 42 -2 76 -5 75 -3 -1 -29 -3 -57 -5z"/>
<path d="M3101 5639 c-34 -13 -68 -56 -75 -94 -14 -75 34 -123 149 -150 101
-22 125 -34 125 -59 0 -30 -11 -43 -45 -56 -61 -23 -185 17 -211 68 -11 23
-12 22 -39 -23 -15 -26 -25 -48 -23 -49 1 -1 35 -16 74 -34 172 -75 329 -39
340 78 9 84 -38 128 -164 156 -105 23 -135 50 -94 87 40 37 180 7 217 -46 8
-11 16 -19 18 -16 2 2 16 22 30 43 l26 40 -32 12 c-133 49 -150 54 -209 53
-35 0 -74 -5 -87 -10z"/>
<path d="M3527 5593 c-3 -16 -9 -36 -12 -45 -6 -15 -1 -18 26 -19 19 0 57 -8
85 -17 l51 -17 -47 -155 c-26 -85 -51 -162 -54 -171 -5 -12 3 -19 35 -28 22
-7 47 -15 54 -17 8 -4 11 2 8 18 -3 19 77 312 90 324 10 10 146 -40 150 -55 2
-9 9 3 16 27 7 24 14 49 17 57 4 9 0 12 -13 9 -22 -6 -376 94 -381 108 -7 17
-20 7 -25 -19z"/>
<path d="M2240 5599 c-61 -17 -66 -19 -53 -27 14 -9 83 -260 83 -303 0 -39
-38 -63 -102 -63 -36 0 -54 5 -63 17 -12 16 -13 16 -19 -5 -3 -13 -6 -37 -6
-53 l0 -31 68 3 c101 5 148 21 182 60 39 44 39 74 -6 241 -19 75 -33 143 -31
154 6 20 -1 21 -53 7z"/>
<path d="M1714 5428 c-12 -20 -343 -190 -355 -183 -14 9 -11 -2 13 -48 11 -23
23 -36 26 -29 4 12 112 72 131 72 15 0 163 -289 157 -306 -4 -10 11 -6 47 12
65 33 64 32 44 47 -16 12 -157 276 -157 294 0 12 119 69 137 65 18 -4 16 7
-11 51 -18 30 -26 36 -32 25z"/>
<path d="M4213 5357 c5 -13 -21 -66 -89 -180 -53 -89 -103 -166 -111 -171 -12
-6 -4 -15 36 -37 54 -31 66 -35 56 -19 -8 14 65 140 81 140 7 0 52 -24 100
-52 77 -47 95 -53 142 -53 49 0 57 3 82 33 48 58 47 115 -5 166 -17 17 -81 60
-141 95 -60 36 -120 72 -134 80 -22 15 -24 15 -17 -2z m130 -144 c34 -20 72
-46 85 -57 30 -26 26 -65 -9 -85 -25 -14 -31 -12 -113 34 -47 27 -86 52 -86
57 0 11 49 88 56 88 3 0 34 -17 67 -37z"/>
<path d="M2465 5066 c-147 -147 -234 -307 -235 -428 l0 -37 -105 50 c-132 62
-277 111 -317 107 -30 -3 -26 -6 58 -57 138 -84 287 -193 307 -227 6 -10 -12
-11 -85 -7 -205 12 -402 -59 -536 -195 -51 -50 -148 -190 -139 -198 3 -3 22
12 41 34 93 103 215 172 316 179 l65 5 -61 -63 c-223 -233 -382 -484 -433
-686 -21 -79 -29 -241 -14 -257 4 -3 37 54 74 128 63 127 131 236 148 236 9 0
21 -195 21 -332 0 -64 3 -88 13 -88 6 0 40 30 74 67 l62 68 0 -35 c1 -19 -6
-78 -14 -130 -8 -52 -15 -110 -15 -128 l0 -33 43 29 c92 63 96 52 32 -85 -25
-53 -45 -101 -45 -106 0 -6 12 -24 27 -39 l27 -28 -19 -33 c-37 -63 -69 -99
-122 -134 -185 -123 -245 -364 -137 -549 67 -114 203 -223 386 -308 97 -46
281 -106 387 -127 33 -6 61 -13 61 -14 0 -1 -11 -22 -24 -46 -42 -76 -67 -183
-73 -320 -6 -136 5 -225 38 -314 l20 -53 87 19 c163 36 306 94 422 172 30 20
61 37 68 37 7 0 30 -9 52 -20 45 -23 85 -25 141 -8 36 10 44 9 112 -25 109
-56 277 -112 422 -141 149 -30 143 -32 171 59 36 121 37 319 1 450 -14 51 -55
154 -67 168 -19 22 -324 -77 -405 -132 -22 -15 -69 -48 -105 -73 -88 -61 -136
-78 -221 -78 -80 0 -108 12 -159 65 -67 71 -163 123 -360 197 -58 21 -92 36
-75 33 82 -17 337 -46 485 -56 361 -22 822 35 1141 141 287 95 494 244 573
409 28 60 31 75 31 166 0 83 -4 111 -25 164 -29 73 -82 138 -150 184 -30 21
-68 62 -104 114 -31 45 -56 85 -56 88 0 2 11 -1 25 -7 14 -6 28 -9 31 -5 8 8
-13 141 -42 259 -13 56 -23 103 -20 105 2 2 28 -30 57 -71 51 -70 75 -93 87
-81 8 8 -19 210 -38 286 -10 40 -15 68 -11 63 4 -5 27 -33 51 -63 24 -29 73
-75 109 -103 62 -47 207 -126 215 -117 2 2 -28 40 -66 84 -139 157 -241 313
-261 396 l-7 26 57 -29 c53 -27 148 -39 166 -22 3 4 -16 23 -42 44 -92 73
-192 210 -261 360 -112 242 -249 447 -404 609 -167 173 -341 278 -521 317
-133 28 -422 13 -592 -31 -29 -7 -53 -12 -53 -10 0 8 167 106 207 121 63 24
52 34 -19 18 -226 -52 -380 -102 -475 -153 -29 -16 -53 -25 -53 -20 0 15 80
212 96 237 7 12 21 33 30 47 30 46 -5 27 -71 -39z m760 -781 c184 -32 323 -81
459 -162 105 -62 282 -235 317 -310 24 -51 25 -52 69 -53 25 0 62 -3 83 -6
l37 -7 0 -75 c0 -72 -2 -77 -30 -101 -27 -23 -32 -36 -46 -121 -18 -116 -48
-229 -74 -280 -18 -36 -20 -60 -20 -253 l0 -215 38 -6 c244 -44 353 -86 414
-160 59 -71 83 -138 83 -236 0 -75 -4 -93 -31 -151 -116 -245 -530 -432 -1101
-498 -237 -27 -384 -33 -565 -21 -662 43 -1141 218 -1307 479 -106 166 -61
370 104 483 58 39 104 55 258 90 l97 22 0 181 0 182 -26 24 c-55 51 -100 176
-128 359 -14 85 -19 98 -46 121 -29 24 -30 29 -30 101 l0 76 48 6 c26 3 77 8
114 11 59 6 67 9 72 30 11 43 103 169 173 236 155 150 340 234 593 269 90 12
337 4 445 -15z"/>
<path d="M2000 3744 c-14 -2 -64 -6 -112 -9 l-88 -7 0 -58 c0 -55 2 -61 33
-84 31 -23 33 -31 45 -120 31 -232 87 -347 192 -401 157 -80 344 -92 503 -34
101 38 234 201 284 348 17 50 30 71 55 89 39 27 94 29 142 5 30 -15 38 -27 55
-83 28 -89 83 -179 163 -265 77 -83 129 -108 261 -126 155 -21 361 34 438 118
56 60 98 181 121 349 12 89 14 97 45 120 31 23 33 29 33 83 l0 58 -54 7 c-125
14 -406 18 -531 7 -139 -13 -336 -48 -450 -81 -44 -13 -100 -20 -150 -20 -50
0 -106 7 -150 20 -104 30 -305 67 -429 79 -98 10 -342 13 -406 5z m468 -54
c121 -13 199 -28 233 -45 81 -42 124 -142 100 -233 -19 -75 -90 -208 -138
-262 -25 -28 -68 -61 -101 -77 -54 -26 -65 -28 -182 -27 -238 1 -337 50 -409
203 -23 51 -26 67 -25 171 0 95 4 125 22 172 13 31 30 62 38 69 43 35 267 49
462 29z m1455 -31 c44 -15 66 -50 87 -137 15 -65 16 -194 1 -249 -6 -22 -29
-67 -50 -100 -70 -109 -165 -146 -376 -147 -118 -1 -134 2 -180 24 -74 36
-137 108 -192 219 -45 91 -48 100 -48 177 0 73 3 84 29 118 39 51 110 82 221
95 50 6 101 13 115 15 52 9 356 -3 393 -15z"/>
<path d="M2235 3626 c-178 -83 -222 -317 -85 -454 141 -142 390 -89 461 97 70
187 -62 381 -261 381 -47 0 -79 -7 -115 -24z m195 -57 c88 -40 134 -108 134
-200 1 -114 -99 -214 -213 -213 -92 0 -160 46 -200 134 -26 57 -26 103 0 160
27 60 54 88 114 116 61 29 106 30 165 3z"/>
<path d="M2272 3500 c-100 -61 -95 -211 8 -262 66 -34 151 -14 193 44 21 28
33 115 20 135 -7 10 -21 9 -63 -2 -30 -8 -55 -13 -57 -12 -1 2 14 22 33 47
l35 44 -23 13 c-35 19 -108 16 -146 -7z"/>
<path d="M1984 3553 c-26 -86 -24 -216 3 -273 l21 -45 1 188 c1 103 -1 187 -4
187 -2 0 -12 -26 -21 -57z"/>
<path d="M3483 3637 c-108 -41 -173 -127 -181 -238 -9 -124 39 -219 138 -273
188 -102 420 32 420 244 0 98 -67 207 -154 252 -49 26 -174 34 -223 15z m203
-82 c147 -86 139 -302 -14 -377 -178 -86 -375 100 -293 277 56 121 194 166
307 100z"/>
<path d="M3514 3510 c-11 -4 -35 -25 -53 -46 -31 -35 -33 -41 -29 -100 3 -50
9 -69 28 -90 34 -36 72 -54 115 -54 89 0 150 59 150 147 0 28 -2 54 -5 57 -3
3 -30 -1 -60 -9 -30 -8 -56 -15 -58 -15 -2 0 12 21 30 46 32 44 32 46 13 60
-20 15 -97 18 -131 4z"/>
<path d="M2823 2989 c-165 -315 -195 -379 -176 -379 28 0 676 140 698 150 14
7 3 9 -40 5 -175 -14 -507 -36 -510 -33 -1 2 24 91 56 198 32 107 57 199 56
204 -2 6 -40 -60 -84 -145z"/>
<path d="M1676 2514 c-90 -89 -110 -129 -111 -224 0 -96 25 -148 115 -236 98
-97 200 -154 395 -220 280 -96 594 -144 951 -144 460 0 880 84 1169 233 76 40
117 70 175 127 96 95 123 148 123 245 -1 108 -41 183 -134 250 l-49 35 -1284
0 -1283 0 -67 -66z m234 -39 l0 -65 -65 0 -65 0 0 65 0 65 65 0 65 0 0 -65z
m170 0 l0 -65 -65 0 -65 0 0 65 0 65 65 0 65 0 0 -65z m170 0 l0 -65 -65 0
-65 0 0 65 0 65 65 0 65 0 0 -65z m160 0 l0 -65 -60 0 -60 0 0 65 0 65 60 0
60 0 0 -65z m170 0 l0 -65 -65 0 -65 0 0 65 0 65 65 0 65 0 0 -65z m170 0 l0
-65 -65 0 -65 0 0 65 0 65 65 0 65 0 0 -65z m170 0 l0 -65 -65 0 -65 0 0 65 0
65 65 0 65 0 0 -65z m170 0 l0 -65 -65 0 -65 0 0 65 0 65 65 0 65 0 0 -65z
m170 0 l0 -65 -65 0 -65 0 0 65 0 65 65 0 65 0 0 -65z m170 0 l0 -65 -65 0
-65 0 0 65 0 65 65 0 65 0 0 -65z m170 0 l0 -65 -65 0 -65 0 0 65 0 65 65 0
65 0 0 -65z m170 0 l0 -65 -65 0 -65 0 0 65 0 65 65 0 65 0 0 -65z m170 0 l0
-65 -65 0 -65 0 0 65 0 65 65 0 65 0 0 -65z m-1780 -170 l0 -65 -65 0 -65 0 0
65 0 65 65 0 65 0 0 -65z m170 0 l0 -65 -65 0 -65 0 0 65 0 65 65 0 65 0 0
-65z m170 0 l0 -65 -65 0 -65 0 0 65 0 65 65 0 65 0 0 -65z m170 0 l0 -65 -65
0 -65 0 0 65 0 65 65 0 65 0 0 -65z m170 0 l0 -65 -65 0 -65 0 0 65 0 65 65 0
65 0 0 -65z m170 0 l0 -65 -65 0 -65 0 0 65 0 65 65 0 65 0 0 -65z m170 0 l0
-65 -65 0 -65 0 0 65 0 65 65 0 65 0 0 -65z m170 0 l0 -65 -65 0 -65 0 0 65 0
65 65 0 65 0 0 -65z m160 0 l0 -65 -60 0 -60 0 0 65 0 65 60 0 60 0 0 -65z
m170 0 l0 -65 -65 0 -65 0 0 65 0 65 65 0 65 0 0 -65z m170 0 l0 -65 -65 0
-65 0 0 65 0 65 65 0 65 0 0 -65z m180 0 l0 -65 -70 0 -70 0 0 65 0 65 70 0
70 0 0 -65z m250 0 l0 -65 -105 0 -105 0 0 65 0 65 105 0 105 0 0 -65z m-2070
-170 l0 -65 -65 0 -65 0 0 65 0 65 65 0 65 0 0 -65z m160 0 l0 -65 -60 0 -60
0 0 65 0 65 60 0 60 0 0 -65z m170 0 l0 -65 -65 0 -65 0 0 65 0 65 65 0 65 0
0 -65z m170 0 l0 -65 -65 0 -65 0 0 65 0 65 65 0 65 0 0 -65z m170 0 l0 -65
-65 0 -65 0 0 65 0 65 65 0 65 0 0 -65z m170 0 l0 -65 -65 0 -65 0 0 65 0 65
65 0 65 0 0 -65z m170 0 l0 -65 -65 0 -65 0 0 65 0 65 65 0 65 0 0 -65z m170
0 l0 -65 -65 0 -65 0 0 65 0 65 65 0 65 0 0 -65z m170 0 l0 -65 -65 0 -65 0 0
65 0 65 65 0 65 0 0 -65z m170 0 l0 -65 -65 0 -65 0 0 65 0 65 65 0 65 0 0
-65z m170 0 l0 -65 -65 0 -65 0 0 65 0 65 65 0 65 0 0 -65z m-1610 -170 l0
-65 -65 0 -65 0 0 65 0 65 65 0 65 0 0 -65z m170 0 l0 -65 -65 0 -65 0 0 65 0
65 65 0 65 0 0 -65z m170 0 l0 -65 -65 0 -65 0 0 65 0 65 65 0 65 0 0 -65z
m170 0 l0 -65 -65 0 -65 0 0 65 0 65 65 0 65 0 0 -65z m170 0 l0 -65 -65 0
-65 0 0 65 0 65 65 0 65 0 0 -65z m160 0 l0 -65 -60 0 -60 0 0 65 0 65 60 0
60 0 0 -65z m170 0 l0 -65 -65 0 -65 0 0 65 0 65 65 0 65 0 0 -65z m170 0 l0
-65 -65 0 -65 0 0 65 0 65 65 0 65 0 0 -65z m170 0 l0 -65 -65 0 -65 0 0 65 0
65 65 0 65 0 0 -65z m170 0 l0 -65 -65 0 -65 0 0 65 0 65 65 0 65 0 0 -65z
m-380 -159 c0 -50 -2 -54 -27 -60 -16 -4 -148 -10 -295 -13 -258 -5 -362 0
-575 29 l-83 11 0 44 0 43 490 0 490 0 0 -54z m420 39 c0 -13 -17 -20 -102
-41 -26 -6 -28 -4 -28 25 l0 31 65 0 c50 0 65 -3 65 -15z m80 11 c0 -2 -9 -6
-20 -9 -11 -3 -20 -1 -20 4 0 5 9 9 20 9 11 0 20 -2 20 -4z"/>
<path d="M1155 5083 c-90 -36 -167 -125 -180 -208 -19 -117 74 -234 197 -251
85 -12 216 66 262 155 41 79 28 177 -32 243 -66 74 -159 96 -247 61z m122 -82
c80 -37 117 -147 73 -219 -45 -74 -158 -98 -220 -46 -36 31 -70 93 -70 129 0
60 50 128 106 145 44 13 65 11 111 -9z"/>
<path d="M4595 4963 c-64 -36 -107 -103 -113 -178 -11 -136 108 -253 303 -298
6 -1 13 17 16 41 5 39 4 43 -13 38 -38 -9 -121 25 -165 68 -45 46 -60 91 -48
153 14 75 109 134 185 113 79 -21 159 -126 146 -192 -5 -23 -3 -29 8 -25 8 3
31 9 50 13 32 5 52 24 27 24 -5 0 -15 17 -22 38 -21 64 -47 108 -89 150 -55
54 -102 75 -175 79 -51 3 -68 -1 -110 -24z"/>
<path d="M758 4736 c-42 -49 -45 -56 -24 -56 8 0 56 -34 108 -77 51 -42 95
-78 97 -80 11 -8 -15 -11 -174 -23 -148 -11 -171 -10 -179 3 -8 12 -18 4 -53
-39 -48 -58 -50 -64 -27 -64 19 0 298 -227 302 -246 5 -21 14 -16 50 28 35 44
39 57 18 54 -14 -1 -206 150 -206 163 0 4 79 13 177 20 142 10 178 9 184 -1 4
-7 10 -10 12 -8 3 3 21 25 41 49 l37 44 -26 13 c-42 22 -293 233 -297 250 -2
10 -15 1 -40 -30z"/>
<path d="M5022 4562 c-58 -54 -55 -96 14 -213 51 -88 55 -115 19 -129 -75 -29
-179 117 -150 211 6 18 4 21 -10 15 -9 -3 -34 -9 -55 -12 -37 -6 -37 -7 -24
-33 8 -14 14 -33 14 -41 0 -28 48 -118 85 -158 48 -54 115 -86 160 -78 47 9
92 54 101 101 6 33 0 50 -46 140 -54 104 -58 128 -22 137 30 8 63 -12 96 -59
24 -34 30 -53 30 -98 l1 -55 45 6 c25 4 46 8 48 9 8 7 -51 154 -76 189 -66 96
-168 126 -230 68z"/>
<path d="M1755 1338 c-62 -34 -90 -83 -101 -177 -5 -50 -10 -60 -29 -65 -66
-17 -142 -114 -165 -212 -12 -50 -12 -55 6 -69 36 -28 99 -54 148 -61 l49 -7
-8 44 c-14 75 -2 309 15 309 17 0 29 -235 15 -309 l-8 -44 49 7 c49 7 112 33
148 61 18 14 19 19 7 67 -20 81 -65 152 -118 187 -26 17 -52 31 -60 31 -8 0
-13 12 -13 33 0 55 21 110 55 144 26 26 41 33 72 32 35 0 36 -1 13 -10 -66
-26 -46 -109 26 -109 39 0 53 11 63 46 9 37 45 45 61 14 6 -12 10 -23 8 -24
-2 -1 -16 -6 -33 -12 -43 -14 -55 -55 -28 -92 38 -51 93 -33 93 31 l1 32 20
-24 c13 -16 19 -36 17 -55 -3 -28 -6 -31 -35 -28 -66 7 -95 -37 -51 -78 28
-26 56 -26 84 1 20 19 23 19 38 4 9 -9 16 -27 16 -40 0 -21 -3 -23 -29 -15
-33 9 -94 -1 -116 -20 -53 -44 41 -104 107 -69 32 17 32 3 2 -48 l-28 -48 -13
33 c-15 36 -28 39 -61 16 -28 -20 -30 -68 -2 -87 17 -12 19 -20 12 -53 -7 -37
-10 -39 -49 -42 l-41 -3 6 92 5 93 -55 -32 c-107 -60 -248 -62 -344 -6 -65 38
-68 36 -62 -61 l6 -85 -44 0 -44 0 0 -45 0 -45 375 0 375 0 0 44 0 45 -48 3
-48 3 8 41 c6 27 16 45 31 53 37 19 71 79 79 140 5 31 11 72 14 92 5 31 1 42
-26 72 -22 26 -30 42 -25 56 11 36 -14 101 -46 119 -16 10 -29 25 -29 37 0 11
-4 25 -8 31 -11 16 -48 34 -71 34 -12 0 -38 9 -58 20 -41 22 -97 26 -128 8z
m135 -75 c-1 -19 -19 -35 -35 -31 -25 4 -30 25 -8 31 29 8 43 7 43 0z m92
-108 c-5 -28 -17 -33 -26 -9 -7 19 1 34 18 34 9 0 12 -9 8 -25z m53 -125 c-3
-5 -12 -10 -20 -10 -8 0 -17 5 -20 10 -4 6 5 10 20 10 15 0 24 -4 20 -10z m35
-119 c0 -11 -25 -21 -51 -21 -24 0 -25 17 -1 23 30 8 52 7 52 -2z"/>
<path d="M3902 1268 c-7 -7 -12 -43 -12 -90 0 -75 -1 -78 -20 -66 -10 7 -21
10 -24 7 -5 -5 -22 -195 -32 -371 l-6 -118 -54 0 -54 0 0 -45 0 -45 380 0 380
0 0 45 0 45 -65 0 -65 0 0 63 c0 75 -18 311 -29 370 -6 35 -11 42 -29 41 -21
-1 -22 3 -22 76 0 81 -9 100 -46 100 -36 0 -54 -36 -54 -108 0 -57 -2 -63 -19
-57 -15 4 -20 -1 -25 -27 -13 -76 -26 -220 -27 -313 -1 -55 -5 -111 -9 -125
-8 -25 -8 -24 -9 5 -3 73 -21 336 -27 393 -6 61 -8 63 -30 58 -24 -6 -24 -6
-24 72 0 82 -9 102 -45 102 -12 0 -26 -5 -33 -12z m308 -103 c0 -43 -4 -75
-10 -75 -6 0 -10 32 -10 75 0 43 4 75 10 75 6 0 10 -32 10 -75z m-237 -157 c3
-13 8 -88 12 -168 3 -80 8 -160 11 -177 4 -28 2 -33 -16 -33 -19 0 -20 6 -21
123 0 120 -9 211 -23 224 -18 19 -29 -30 -38 -179 -10 -153 -13 -177 -21 -167
-5 5 11 325 18 367 5 29 9 32 39 32 27 0 35 -5 39 -22z m247 -114 c5 -38 9
-113 10 -166 l0 -98 -35 0 -35 0 0 93 c1 94 15 230 26 249 12 20 26 -10 34
-78z"/>
<path d="M3194 465 c-4 -9 -2 -21 4 -27 15 -15 44 -1 40 19 -4 23 -36 29 -44
8z"/>
<path d="M3766 464 c-4 -10 -2 -22 3 -27 14 -14 43 0 39 20 -4 24 -34 28 -42
7z"/>
<path d="M3877 439 c-9 -6 -17 -17 -17 -24 0 -8 -4 -15 -10 -15 -5 0 -10 -7
-10 -15 0 -8 5 -15 10 -15 6 0 10 -21 10 -47 0 -67 18 -97 58 -101 36 -4 46
22 12 31 -17 4 -20 14 -20 61 0 49 2 56 20 56 11 0 20 7 20 15 0 8 -9 15 -20
15 -13 0 -20 7 -20 19 0 25 -11 32 -33 20z"/>
<path d="M3050 400 c-8 -5 -30 -7 -49 -3 -30 5 -33 3 -28 -11 4 -10 7 -51 7
-92 0 -67 2 -74 20 -74 18 0 20 7 20 63 0 65 11 87 42 87 24 0 38 -38 38 -101
0 -42 3 -49 20 -49 18 0 20 7 20 70 0 62 -3 74 -25 95 -26 27 -41 30 -65 15z"/>
<path d="M3358 396 c-16 -9 -30 -11 -33 -5 -11 17 -43 10 -40 -8 2 -10 4 -66
4 -125 1 -101 2 -108 21 -108 17 0 20 7 20 47 0 37 3 44 12 35 15 -15 62 -16
88 -2 11 6 24 28 30 50 14 51 -7 106 -45 120 -32 12 -25 13 -57 -4z m52 -45
c22 -43 2 -101 -35 -101 -22 0 -45 29 -45 56 0 39 18 64 45 64 14 0 29 -8 35
-19z"/>
<path d="M3564 403 c-67 -13 -92 -115 -40 -160 35 -30 120 -34 114 -5 -2 11
-11 16 -26 14 -36 -5 -72 24 -72 58 0 36 23 60 60 60 25 0 48 15 38 25 -7 7
-54 12 -74 8z"/>
<path d="M2030 394 c0 -5 11 -46 26 -92 22 -74 27 -83 47 -80 17 2 25 15 37
56 8 28 18 52 21 52 3 0 12 -24 20 -52 11 -42 19 -54 36 -56 20 -3 25 6 47 80
31 101 31 98 7 98 -20 0 -26 -10 -37 -73 -10 -56 -19 -53 -38 13 -12 46 -21
60 -35 60 -14 0 -23 -16 -38 -67 l-19 -68 -15 65 c-12 54 -18 66 -37 68 -12 2
-22 0 -22 -4z"/>
<path d="M2320 394 c0 -5 11 -46 26 -92 22 -74 28 -83 47 -80 16 2 25 15 37
55 9 29 18 55 21 58 4 3 12 -22 19 -55 11 -53 16 -60 36 -60 21 0 26 10 49 83
30 99 30 97 6 97 -15 0 -22 -12 -31 -52 -14 -60 -29 -94 -30 -67 0 8 -7 39
-15 67 -23 77 -46 72 -72 -15 l-20 -68 -14 65 c-13 54 -19 66 -37 68 -12 2
-22 0 -22 -4z"/>
<path d="M2600 395 c0 -4 12 -45 26 -92 22 -74 28 -84 47 -81 16 2 25 16 37
55 8 28 18 54 21 58 3 3 12 -22 19 -55 11 -53 16 -60 36 -60 21 0 26 10 49 83
30 99 30 97 6 97 -14 0 -21 -12 -31 -47 -15 -62 -28 -94 -29 -72 -1 8 -8 39
-16 67 -23 77 -46 72 -72 -15 l-20 -68 -14 65 c-13 54 -19 66 -37 68 -12 2
-22 0 -22 -3z"/>
<path d="M3190 306 c0 -103 -5 -126 -26 -126 -8 0 -14 -9 -14 -20 0 -27 23
-25 57 4 27 23 28 28 31 130 l4 106 -26 0 -26 0 0 -94z"/>
<path d="M3768 310 c-3 -88 -2 -90 20 -90 21 0 22 3 22 90 0 82 -2 90 -19 90
-18 0 -20 -9 -23 -90z"/>
<path d="M2884 255 c-8 -19 3 -35 26 -35 19 0 30 17 23 38 -6 17 -42 15 -49
-3z"/>
<path d="M3674 255 c-8 -19 3 -35 26 -35 19 0 30 17 23 38 -6 17 -42 15 -49
-3z"/>
</g>
</svg>
