<svg xmlns="http://www.w3.org/2000/svg" width="300" height="300" viewBox="0 0 300 300" xmlns:xlink="http://www.w3.org/1999/xlink">
  <defs>
    <rect id="a" width="300" height="300"/>
  </defs>
  <g fill="none" fill-rule="evenodd">
    <use fill="#DEF4FD" xlink:href="#a"/>
    <rect width="299" height="299" x=".5" y=".5" stroke="#000000" stroke-opacity=".3"/>
    <path fill="#171718" d="M95.1135777 208.467342C94.6148899 207.967796 93.8715788 207.922304 92.8055369 207.922304L91.878544 207.922304 91.878544 211.893783 92.9935105 211.893783C93.9205035 211.893783 95.5830825 211.844858 95.5830825 209.825215 95.5830825 209.374593 95.4663501 208.823548 95.1135777 208.467342zM96.3221019 220.78004L94.7539388 217.28665C94.5659652 216.859203 94.1119103 215.744237 93.585756 215.218941 93.1583093 214.790636 92.6364466 214.812952 92.0922674 214.812952L91.878544 214.812952 91.878544 220.78004 88.0280899 220.78004 88.0280899 204.927602 92.3283072 204.927602C94.3745583 204.927602 96.393343 204.78512 97.9889726 206.379891 98.6790673 207.070844 99.2944876 208.091395 99.2944876 209.487893 99.2944876 211.653451 97.9400479 213.293714 95.1590691 213.575245 96.1083785 213.626744 96.750407 213.9572 97.275703 214.482496 97.9889726 215.199199 98.3898112 216.217175 98.8893574 217.308966L100.461812 220.78004 96.3221019 220.78004zM103.963786 220.78004L103.963786 204.927602 113.995909 204.927602 113.995909 208.039037 107.863164 208.039037 107.863164 211.198538 113.613096 211.198538 113.613096 214.246456 107.863164 214.246456 107.863164 217.617106 114.187316 217.617106 114.187316 220.78004 103.963786 220.78004zM132.517744 220.78004L131.586459 210.230345 128.284476 220.78004 125.052017 220.78004 121.580943 210.204595 120.867674 220.78004 117.426642 220.78004 118.972488 204.927602 123.180006 204.927602 126.86137 215.841228 130.306694 204.927602 134.50992 204.927602 136.150183 220.78004 132.517744 220.78004zM146.332514 221.186029C141.487259 221.186029 138.323466 217.665172 138.323466 212.625077 138.323466 207.851063 141.506142 204.522472 146.242389 204.522472 151.136569 204.522472 154.24457 208.020154 154.24457 212.699751 154.24457 217.856579 150.918554 221.186029 146.332514 221.186029zM146.141107 207.685406C143.791866 207.685406 142.268336 209.847531 142.268336 212.989008 142.268336 216.194858 144.051081 217.954428 146.381438 217.954428 149.710888 217.954428 150.303134 214.741711 150.303134 212.678293 150.303134 209.798607 148.682613 207.685406 146.141107 207.685406zM164.486984 220.78004L160.778154 220.78004 155.33722 204.927602 159.254624 204.927602 162.704239 216.119325 166.178746 204.927602 170.022334 204.927602 164.486984 220.78004zM180.523962 220.78004L179.626152 217.883187 174.060761 217.883187 173.13806 220.78004 169.163149 220.78004 174.898488 204.927602 178.793575 204.927602 184.569257 220.78004 180.523962 220.78004zM176.793674 209.014096L174.965438 214.959726 178.67341 214.959726 176.793674 209.014096zM186.71679 220.78004L186.71679 204.927602 190.660802 204.927602 190.660802 217.617106 196.632182 217.617106 196.632182 220.78004 186.71679 220.78004zM203.81981 221.186029C200.565893 221.186029 198.681866 219.804981 198.231245 219.354359L199.87494 216.80942C200.208829 217.005119 201.586444 217.99992 203.579479 217.99992 204.884994 217.99992 205.910695 217.52269 205.910695 216.262666 205.910695 215.860111 205.793962 215.575146 205.455781 215.241257 204.724487 214.509104 201.488595 213.725452 199.893824 212.152997 199.25952 211.536719 198.729932 210.748775 198.729932 209.299919 198.729932 206.473449 201.20363 204.522472 204.506472 204.522472 207.527782 204.522472 209.35516 205.930128 209.666733 206.211659L208.00072 208.661324C207.693439 208.467342 206.364749 207.562665 204.675562 207.562665 203.413822 207.562665 202.607853 208.061353 202.607853 208.99178 202.607853 209.54025 202.843893 209.754832 203.061049 209.945381 203.842127 210.729891 206.881462 211.367628 208.619574 213.102307 209.35516 213.81901 209.809215 214.836127 209.809215 216.025768 209.809215 219.114028 207.358692 221.186029 203.81981 221.186029zM45 168.148198L45 109.697645 59.5463432 109.697645 59.5463432 156.488831 81.5403994 156.488831 81.5403994 168.148198 45 168.148198zM114.663462 169.634556C96.7855207 169.634556 85.1310533 156.66521 85.1310533 138.088491 85.1310533 120.473281 96.8712604 108.203325 114.312541 108.203325 132.363799 108.203325 143.843725 121.086932 143.843725 138.351222 143.843725 157.363988 131.576831 169.634556 114.663462 169.634556zM113.961621 119.862692C105.287831 119.862692 99.6773964 127.835254 99.6773964 139.40092 99.6773964 151.231766 106.24934 157.72042 114.837391 157.72042 127.104284 157.72042 129.295544 145.889574 129.295544 138.26242 129.295544 127.658263 123.336639 119.862692 113.961621 119.862692zM182.563749 168.3405L168.890725 168.3405 148.822136 109.890559 163.28029 109.890559 175.989967 151.162562 188.78171 109.890559 202.977746 109.890559 182.563749 168.3405zM214.021012 168.148198L214.021012 109.697645 251.000521 109.697645 251.000521 121.175121 228.387914 121.175121 228.387914 132.832038 249.597453 132.832038 249.597453 144.046784 228.387914 144.046784 228.387914 156.488831 251.702361 156.488831 251.702361 168.148198 214.021012 168.148198z"/>
  </g>
</svg>
