<svg width="29" height="30" xmlns="http://www.w3.org/2000/svg"><path d="M27.507 13.373L21.77 7.465c-.159.14-.338.302-.5.45l.129-.138c-.45.406-.895.826-1.326 1.254-2.867 2.854-5.274 6.22-7.144 9.827-.98 1.892-1.957 3.742-2.526 5.888l-.024.025c-.061.062-.034.116-.065.208-.074.216-.217.499-.333.756l2.76 2.84a2.103 2.103 0 003.029 0l11.737-12.084a2.258 2.258 0 000-3.118m-7.813-6.962c.213-.116.46-.264.68-.383L15.391.898a2.104 2.104 0 00-3.029 0L.625 12.982a2.256 2.256 0 000 3.118l3.913 4.03c.202-.265.459-.583.623-.806.175-.236.382-.505.56-.738 2.458-3.227 5.18-6.033 8.33-8.543 1.813-1.444 3.631-2.54 5.643-3.633" fill="#2C98E3"/></svg>