<svg xmlns="http://www.w3.org/2000/svg" xmlns:xlink="http://www.w3.org/1999/xlink" width="234.98" height="61.731" viewBox="0 0 234.98 61.731"><defs><clipPath id="a"><rect width="234.98" height="61.731" fill="none"/></clipPath></defs><g clip-path="url(#a)"><g transform="translate(0 24.321)"><path d="M240.42,143.65l-.7,3.99a1,1,0,0,1-.97.74h-6.3l-3.97,22.54a.989.989,0,0,1-.93.77h-5.1a.588.588,0,0,1-.62-.62v-.16l3.97-22.54h-6.34a.558.558,0,0,1-.62-.58v-.15l.7-3.99a.92.92,0,0,1,.9-.74h19.3a.657.657,0,0,1,.7.62A.274.274,0,0,0,240.42,143.65Z" transform="translate(-218.84 -141.83)" fill="#213260"/><path d="M253.1,149.97l-.66,3.68c-.08.35-.35.74-.7.74h-.31a11.751,11.751,0,0,0-5.25,1.36l-2.69,15.14a1.028,1.028,0,0,1-.93.81h-4.71a.653.653,0,0,1-.66-.66v-.15l3.66-20.6a.948.948,0,0,1,.9-.77h4.63a.621.621,0,0,1,.66.62v.15l-.16.77a7.643,7.643,0,0,1,5.56-1.86.63.63,0,0,1,.66.66Z" transform="translate(-218.84 -141.83)" fill="#213260"/><path d="M262.32,150.28l-3.66,20.64a.989.989,0,0,1-.93.77h-4.75a.588.588,0,0,1-.62-.62v-.16l3.66-20.64a.948.948,0,0,1,.9-.77h4.75a.63.63,0,0,1,.66.66A.486.486,0,0,0,262.32,150.28Zm1.48-7.67-.62,3.6a.989.989,0,0,1-.93.77h-5.06a.588.588,0,0,1-.62-.62v-.16l.62-3.6a.989.989,0,0,1,.93-.77h5.06a.588.588,0,0,1,.62.62Z" transform="translate(-218.84 -141.83)" fill="#213260"/><path d="M284.43,159.11l-.51,3.02c-1.21,7.2-5.29,9.91-11.21,9.91a28.481,28.481,0,0,1-3.46-.27l-1.21,6.7a.948.948,0,0,1-.9.77h-4.71a.663.663,0,0,1-.7-.66v-.12l4.83-27.15c.12-.62.31-.89,1.4-1.12a39.2,39.2,0,0,1,8.44-1.01c5.22,0,8.21,3.14,8.21,7.82A13.165,13.165,0,0,1,284.43,159.11Zm-8.92-4.73a24.774,24.774,0,0,0-3.23.19l-2.14,12.08a20.167,20.167,0,0,0,2.92.23c2.45,0,3.89-.93,4.55-4.76l.51-3.02a13.321,13.321,0,0,0,.19-2.01C278.32,155.31,277.62,154.38,275.51,154.38Z" transform="translate(-218.84 -141.83)" fill="#213260"/><path d="M303.96,150.66l-.62,3.45a.88.88,0,0,1-.86.66h-.08a35.343,35.343,0,0,0-4.71-.27c-1.91,0-3.31.89-3.97,4.49l-.58,3.25a12.162,12.162,0,0,0-.19,1.86c0,2.09.97,2.63,2.61,2.63a39.6,39.6,0,0,0,4.79-.27h.08a.549.549,0,0,1,.62.54v.12l-.62,3.45c-.12.58-.35.74-.97.89a21.914,21.914,0,0,1-5.18.58c-4.55,0-7.67-2.71-7.67-7.51a12.512,12.512,0,0,1,.23-2.29l.58-3.25c1.28-7.24,5.14-9.8,10.78-9.8a20.652,20.652,0,0,1,5.1.58c.47.12.7.27.7.62C304,150.47,303.96,150.59,303.96,150.66Z" transform="translate(-218.84 -141.83)" fill="#213260"/><path d="M325.09,151.32l-3.42,19.6a.948.948,0,0,1-.9.77H316.8a.653.653,0,0,1-.66-.66v-.12l.16-1.12a9.366,9.366,0,0,1-6.03,2.25c-4.67,0-6.54-3.56-6.54-7.44a14.452,14.452,0,0,1,.19-2.17s.51-2.9.62-3.64c1.17-6.74,5.37-9.6,11.48-9.6a37.332,37.332,0,0,1,8.06.97c.66.15,1.05.27,1.05.85A2.024,2.024,0,0,1,325.09,151.32Zm-9.89,3.02c-2.76,0-3.89,1.63-4.44,4.76l-.7,4.07a6.933,6.933,0,0,0-.12,1.28c0,1.28.47,2.36,2.22,2.36a8.971,8.971,0,0,0,4.13-1.36l1.91-10.88A21.468,21.468,0,0,0,315.2,154.34Z" transform="translate(-218.84 -141.83)" fill="#213260"/><path d="M341.15,150.28l-.58,3.14a.948.948,0,0,1-.9.77h-3.19l-2.02,11.27a6.613,6.613,0,0,0-.12,1.08c0,.58.27.74,1.09.74h1.91c.39,0,.7.16.7.54v.12l-.54,3.02a.941.941,0,0,1-.86.77,18.448,18.448,0,0,1-3.15.31c-3.54,0-5.53-1.28-5.53-4.65a13.956,13.956,0,0,1,.19-1.98l1.99-11.23-3.04-.5a.714.714,0,0,1-.66-.7v-.12l.43-2.56a1.064,1.064,0,0,1,.97-.81h3.11l.55-3.18a1.031,1.031,0,0,1,.93-.77l4.9-.81h.12a.516.516,0,0,1,.58.54v.12l-.74,4.11h3.19a.63.63,0,0,1,.66.66A.486.486,0,0,1,341.15,150.28Z" transform="translate(-218.84 -141.83)" fill="#213260"/><path d="M358.5,150.66l-.62,3.45a.88.88,0,0,1-.86.66h-.08a35.343,35.343,0,0,0-4.71-.27c-1.91,0-3.31.89-3.97,4.49l-.58,3.25a12.162,12.162,0,0,0-.19,1.86c0,2.09.97,2.63,2.61,2.63a39.6,39.6,0,0,0,4.79-.27h.08a.549.549,0,0,1,.62.54v.12l-.62,3.45c-.12.58-.35.74-.97.89a21.914,21.914,0,0,1-5.18.58c-4.55,0-7.67-2.71-7.67-7.51a12.512,12.512,0,0,1,.23-2.29l.58-3.25c1.28-7.24,5.14-9.8,10.78-9.8a20.652,20.652,0,0,1,5.1.58c.47.12.7.27.7.62C358.54,150.47,358.5,150.59,358.5,150.66Z" transform="translate(-218.84 -141.83)" fill="#213260"/><path d="M380.02,157.36l-2.37,13.55a.989.989,0,0,1-.93.77h-4.75a.588.588,0,0,1-.62-.62v-.16l2.37-13.52a5.908,5.908,0,0,0,.12-1.08c0-1.51-.86-2.01-2.96-2.01a15.524,15.524,0,0,0-3.19.31l-2.88,16.27a1.028,1.028,0,0,1-.93.81h-4.71a.663.663,0,0,1-.66-.7v-.12l4.98-28.12a.948.948,0,0,1,.9-.77h4.75a.63.63,0,0,1,.66.66v.12l-1.25,6.93a20.965,20.965,0,0,1,4.16-.5c5.06,0,7.47,2.71,7.47,6.47A8.446,8.446,0,0,1,380.02,157.36Z" transform="translate(-218.84 -141.83)" fill="#213260"/><path d="M402.82,159.38l-.39,2.25a1.008,1.008,0,0,1-.97.93H388.97a12.389,12.389,0,0,0-.16,1.59c0,2.01.97,2.71,3.46,2.71,2.45,0,5.95-.19,7.55-.35h.12c.35,0,.62.15.62.5v.12l-.55,2.94c-.12.62-.27.89-.97,1.05a32.059,32.059,0,0,1-8.17.93c-4.2,0-8.17-2.4-8.17-7.78a15.943,15.943,0,0,1,.19-2.17l.47-2.71c1.17-6.74,5.25-10.19,11.64-10.19,5.25,0,8.02,3.56,8.02,8.09A12.824,12.824,0,0,1,402.82,159.38Zm-8.71-5.15c-2.65,0-3.89,1.78-4.48,4.45h7.32a9.2,9.2,0,0,0,.19-1.7C397.14,155.19,396.29,154.23,394.11,154.23Z" transform="translate(-218.84 -141.83)" fill="#213260"/><path d="M420.41,149.97l-.66,3.68c-.08.35-.35.74-.7.74h-.31a11.751,11.751,0,0,0-5.25,1.36l-2.69,15.14a1.028,1.028,0,0,1-.93.81h-4.71a.653.653,0,0,1-.66-.66v-.15l3.66-20.6a.948.948,0,0,1,.9-.77h4.63a.621.621,0,0,1,.66.62v.15l-.16.77a7.643,7.643,0,0,1,5.56-1.86.63.63,0,0,1,.66.66Z" transform="translate(-218.84 -141.83)" fill="#213260"/></g><path d="M452.88,122.56a6.559,6.559,0,0,0-3.21-3.43,5.848,5.848,0,0,0-2.48-.52c-.06,0-1.08-.14-1.15-.14-6.58-.47-10.82-.2-16.08,1.28-2.03-.3-15.26-2.22-18.44-2.24a3.177,3.177,0,0,0-.99.15,6.727,6.727,0,0,0-4.75,3.93c-1.47,3.42-.64,7.72,1.6,9.19a3.355,3.355,0,0,0,.36.21c.09.07.17.14.26.21-.18,3.41.99,6.49,3.17,8.01,2.25,1.57,5.18,1.22,7.64-.93l15.41,10.11-10.68,23.4a1.753,1.753,0,0,0,.87,2.32,1.719,1.719,0,0,0,.73.16,1.76,1.76,0,0,0,1.59-1.02l10.73-23.52a6.891,6.891,0,0,0,1.01.09h.01c2.54-.03,4.94-1.38,7.14-3.43a26.428,26.428,0,0,0,5.74-8.29,25.919,25.919,0,0,0,2.46-10.44A12.678,12.678,0,0,0,452.88,122.56Zm-34.27,12.53c-1.65,1.77-3.78,2.18-5.39,1.1-1.57-1.06-2.37-3.36-2.07-5.86a1.209,1.209,0,0,0-.41-1.17l-.16-.1a2.89,2.89,0,0,1-.49-.34.864.864,0,0,0-.16-.1,1.229,1.229,0,0,1-.25-.14c-1.27-.8-1.61-3-.78-4.93a3.818,3.818,0,0,1,2.56-2.4c.03-.01.06-.01.09-.02a1.418,1.418,0,0,1,.49-.07c3,.08,16.87,2.38,17.02,2.4a1.145,1.145,0,0,0,.41-.02,35.4,35.4,0,0,1,9.97-1.21c-.2.17-.4.34-.59.52a24.478,24.478,0,0,0-5.31,7.66,23.849,23.849,0,0,0-2.28,9.65,13.284,13.284,0,0,0,.17,2.12l-11.65-7.34A.937.937,0,0,0,418.61,135.09Zm29.57,1.53a23.073,23.073,0,0,1-4.95,7.19c-1.8,1.71-3.6,2.51-4.76,2.49a2.431,2.431,0,0,1-1.03-.21,3,3,0,0,1-1.46-1.65,9.02,9.02,0,0,1-.65-3.66,22.38,22.38,0,0,1,2.15-8.99,22.791,22.791,0,0,1,4.95-7.19c1.77-1.69,3.54-2.49,4.7-2.48h.06a2.384,2.384,0,0,1,1.02.21,3.033,3.033,0,0,1,1.47,1.66,9.193,9.193,0,0,1,.65,3.66A22.71,22.71,0,0,1,448.18,136.62Z" transform="translate(-218.84 -117.509)" fill="#10dbe5"/></g></svg>