<svg xmlns="http://www.w3.org/2000/svg" width="254.73" height="93.11" viewBox="0 0 254.73 93.11"><defs><style>.a{fill:#fff;}.b{fill:#00d1ff;}</style></defs><title>logo__upfix</title><path class="a" d="M57.21,45.3c0,20.82-14.76,29.92-28.61,29.92S0,66.12,0,45.3V1.75H17.18v43c0,12.13,6.87,14.15,11.42,14.15S40,56.92,40,44.8v-43H57.21Z"/><path class="a" d="M115.27,49.24c0,14.35-9.91,26-24.26,26A20.22,20.22,0,0,1,80.6,72.39V93.11H64.83V24h8.81l2.51,5A21.52,21.52,0,0,1,91,23.37C105.36,23.37,115.27,34.89,115.27,49.24Zm-35.88,0A10.27,10.27,0,0,0,89.5,60c5.05,0,10.11-3.84,10.11-10.71S94.55,38.63,89.5,38.63A10.18,10.18,0,0,0,79.39,49.24Z"/><path class="a" d="M169.35,30.95V47.22h-27.3V74.51H124.87V1.75h47.61V17.92H142.05v13Z"/><path class="a" d="M178.4,23.9h15.77V74.51H178.4Z"/><path class="a" d="M217.78,74.51H199.58L218,48.13,200.25,24h18.09l8.79,11.42,8-11.44h18.19l-17.5,24.79,18.9,25.78H236.64l-9.91-13.14Z"/><polygon class="b" points="177.77 14.79 186.31 19.69 194.83 14.75 194.81 4.91 186.27 0 177.75 4.94 177.77 14.79"/></svg>